<?xml version="1.0" encoding="UTF-8" standalone="no"?>
<svg
   version="1.1"
   viewBox="0 0 64 64"
   id="svg31"
   sodipodi:docname="favicon.svg"
   width="64"
   height="64"
   inkscape:export-filename="favicon-16x16.png"
   inkscape:export-xdpi="24"
   inkscape:export-ydpi="24"
   xmlns:inkscape="http://www.inkscape.org/namespaces/inkscape"
   xmlns:sodipodi="http://sodipodi.sourceforge.net/DTD/sodipodi-0.dtd"
   xmlns="http://www.w3.org/2000/svg"
   xmlns:svg="http://www.w3.org/2000/svg">
  <sodipodi:namedview
     id="namedview31"
     pagecolor="#ffffff"
     bordercolor="#000000"
     borderopacity="0.25"
     inkscape:showpageshadow="2"
     inkscape:pageopacity="0.0"
     inkscape:pagecheckerboard="0"
     inkscape:deskcolor="#d1d1d1" />
  <defs
     id="defs1">
    <style
       id="style1">
      .cls-1 {
        fill: #b62c08;
      }

      .cls-2 {
        fill: #e44f09;
      }

      .cls-3 {
        fill: #f28c34;
      }

      .cls-4 {
        fill: #b62c08;
      }
    </style>
  </defs>
  <!-- Generator: Adobe Illustrator 28.6.0, SVG Export Plug-In . SVG Version: 1.2.0 Build 709)  -->
  <g
     id="g32"
     inkscape:export-filename="../../../favicontest.svg"
     inkscape:export-xdpi="96"
     inkscape:export-ydpi="96"
     transform="matrix(1.672935,0,0,1.672935,-396.40045,-231.95948)">
    <path
       class="cls-2"
       d="m 262.15121,173.13436 c 0.0778,-0.0778 0.14849,-0.14849 0.22628,-0.22627 2.58094,-2.67994 5.64978,-7.64383 5.64978,-16.14325 h -3.0547 c 0,12.57236 -7.20542,16.25639 -8.98026,16.97056 -1.74655,-0.55861 -8.85298,-3.66281 -8.85298,-16.97056 h -3.0547 c 0,4.96389 0.98288,11.87232 5.67807,16.52509 2.90621,2.87792 5.86899,3.52139 5.9892,3.5426 l 0.37476,0.0778 0.3677,-0.11313 c 0.12021,-0.0354 2.87792,-0.88389 5.65685,-3.66282 z"
       id="path1-6"
       style="fill:#e44f09" />
    <path
       class="cls-1"
       d="m 249.37379,159.89025 h 13.37846 c 2.10718,0 4.02344,-0.8556 5.40937,-2.24153 1.38593,-1.38592 2.24153,-3.30218 2.24153,-5.40936 0,-4.21436 -3.42947,-7.64383 -7.64383,-7.64383 h -5.26087 v -5.94132 h -3.0547 v 5.94132 h -5.04874 c -4.21436,0 -7.64383,3.42947 -7.64383,7.64383 0,4.21435 3.42947,7.64382 7.64383,7.64382 z m -4.59619,-7.65089 c 0,-1.25865 0.51619,-2.41124 1.3435,-3.23855 0.82732,-0.82732 1.9799,-1.3435 3.23855,-1.3435 h 13.37846 c 2.53144,0 4.58912,2.05768 4.58912,4.58912 0,2.53144 -2.05768,4.58912 -4.58912,4.58912 h -13.37846 c -2.53144,0 -4.58912,-2.05768 -4.58912,-4.58912 z"
       id="path2-7"
       style="fill:#b62c08"
       sodipodi:nodetypes="cssssccccsscccsssssscc" />
  </g>
</svg>
