<?xml version="1.0" encoding="UTF-8"?>
<svg xmlns="http://www.w3.org/2000/svg" version="1.1" viewBox="0 0 512 300">
  <defs>
    <style>
      .cls-1 {
        fill: #b62c08;
      }

      .cls-2 {
        fill: #e44f09;
      }

      .cls-3 {
        fill: #f28c34;
      }

      .cls-4 {
        fill: #b62c08;
      }
    </style>
  </defs>
  <!-- Generator: Adobe Illustrator 28.6.0, SVG Export Plug-In . SVG Version: 1.2.0 Build 709)  -->
  <g>
    <g id="Logo">
      <g>
        <path class="cls-2" d="M311.77,241.33c.11,0,.21,0,.32,0,3.72-.07,9.4-1.41,15.41-7.42l-2.16-2.16c-8.89,8.89-16.59,6.4-18.35,5.65-.84-1.63-3.67-8.85,5.74-18.26l-2.16-2.16c-3.51,3.51-7.7,9.09-7.67,15.7.02,4.09,1.66,6.64,1.73,6.74l.21.32.34.18c.11.06,2.66,1.41,6.59,1.41Z"/>
        <path class="cls-1" d="M312.1,222.93l9.46,9.46c1.49,1.49,3.45,2.24,5.41,2.24s3.92-.75,5.41-2.24c2.98-2.98,2.98-7.83,0-10.81l-3.72-3.72,16.09-16.09-2.16-2.16-16.09,16.09-3.57-3.57c-2.98-2.98-7.83-2.98-10.81,0-2.98,2.98-2.98,7.83,0,10.81ZM314.26,214.27c.89-.89,2.07-1.34,3.24-1.34s2.35.45,3.24,1.34l9.46,9.46c1.79,1.79,1.79,4.7,0,6.49-1.79,1.79-4.7,1.79-6.49,0l-9.46-9.46c-1.79-1.79-1.79-4.7,0-6.49Z"/>
        <path class="cls-1" d="M499.96,127c-4.03-4.4-13.68-11.01-23.76-11.21-8.8-.17-13.21,4.81-15.37,9.03-1.2,2.35-1.83,4.69-2.16,6.41h-19.55l-24.3,24.3,2.16,2.16,23.41-23.4h17.96c.11.66.8,4.19,3.12,7.7,2.3,3.47,6.65,7.53,14.41,7.53.25,0,.5,0,.76-.01,8.32-.28,14.64-4.39,18.48-7.79,3.42-3.03,7.06-7.68,7.23-10.23.03-.44.12-1.76-2.38-4.49ZM493.06,139.45c-3.46,3.05-9.13,6.75-16.52,6.99-.22,0-.44.01-.65.01-11.07,0-13.89-9.67-14.43-12.17h8.64l8.26,8.26,2.16-2.16-6.1-6.1h13.52v-3.06h-13.09l5.68-5.68-2.16-2.16-7.84,7.84h-8.73c.31-1.42.85-3.23,1.77-5.02,2.56-5.01,6.8-7.49,12.59-7.37,6.77.14,12.88,3.53,15.93,5.55,4.83,3.2,7.06,6.17,7.22,6.93-.13.89-2.08,4.46-6.23,8.13Z"/>
        <path class="cls-1" d="M381.82,175.68c-2.71.88-4.98,2.19-6.52,3.24l-18.35-18.35-2.16,2.16,18.1,18.1c-.22.3-2.55,3.57-3.49,8.2-.91,4.47-.64,11.05,5.75,17.03,6.47,6.05,14.32,7.71,19.77,8.05.77.05,1.53.07,2.26.07,5.18,0,9.44-1.09,10.84-2.31.34-.3,1.39-1.21,1.55-5.11.28-6.34-2.01-18.59-9.44-26.33-6.47-6.74-13.53-6.31-18.32-4.76ZM405.98,209.6c-.71.56-4.99,1.82-10.88,1.47-4.95-.3-12.06-1.8-17.86-7.23-9.27-8.68-3.56-18.66-2.15-20.8l6.64,6.64v12.52h3.06v-9.46l10.38,10.38,2.16-2.16-10.06-10.06h8.82v-3.06h-11.88l-6.7-6.7c1.35-.87,3.19-1.89,5.34-2.57,5.72-1.82,10.79-.47,15.08,3.99,5.05,5.25,7.1,12.48,7.87,16.33,1.24,6.14.65,10.06.18,10.72Z"/>
        <path class="cls-1" d="M330.75,161.43l18.35-18.35c1.54,1.05,3.81,2.36,6.52,3.24,1.69.55,3.67.96,5.81.96,3.9,0,8.33-1.36,12.51-5.71,7.43-7.74,9.72-19.99,9.44-26.33-.17-3.9-1.21-4.81-1.55-5.11-1.59-1.39-6.93-2.61-13.1-2.24-5.45.33-13.3,2-19.77,8.05-6.4,5.98-6.66,12.56-5.75,17.03.94,4.63,3.27,7.91,3.49,8.2l-18.1,18.1,2.16,2.16ZM351.04,118.17c5.8-5.43,12.92-6.93,17.86-7.23,5.89-.36,10.16.9,10.88,1.47.47.65,1.06,4.57-.18,10.72-.78,3.84-2.83,11.07-7.87,16.33-4.29,4.47-9.37,5.81-15.08,3.99-2.15-.68-3.99-1.7-5.34-2.57l6.7-6.7h11.88v-3.06h-8.82l10.06-10.06-2.16-2.16-10.38,10.38v-9.46h-3.06v12.52l-6.64,6.64c-1.4-2.14-7.12-12.12,2.15-20.8Z"/>
        <path class="cls-1" d="M455.83,71.11c.82,1.62,3.5,8.59-5.57,17.66l2.16,2.16c3.42-3.42,7.49-8.84,7.46-15.27-.01-3.98-1.62-6.46-1.69-6.57l-.21-.32-.34-.18c-.11-.06-2.72-1.44-6.74-1.37-3.61.07-9.15,1.37-14.99,7.22l2.16,2.16c8.59-8.59,16.03-6.21,17.75-5.48Z"/>
        <path class="cls-1" d="M74.19,131.23h-19.55c-.33-1.72-.96-4.06-2.16-6.41-2.16-4.22-6.57-9.2-15.37-9.03-10.08.2-19.73,6.82-23.76,11.21-2.5,2.73-2.41,4.05-2.38,4.49.17,2.54,3.81,7.2,7.23,10.23,3.84,3.4,10.16,7.51,18.48,7.79.26,0,.51.01.76.01,7.76,0,12.11-4.06,14.41-7.53,2.32-3.51,3.01-7.04,3.12-7.7h17.96l23.4,23.4,2.16-2.16-24.3-24.3ZM37.42,146.45c-.21,0-.43,0-.65-.01-7.39-.25-13.07-3.94-16.52-6.99-4.15-3.66-6.11-7.24-6.23-8.13.16-.76,2.39-3.74,7.22-6.93,3.04-2.01,9.16-5.41,15.93-5.55.13,0,.26,0,.38,0,9.96,0,13.04,7.99,13.98,12.39h-8.74l-7.84-7.84-2.16,2.16,5.68,5.68h-13.09v3.06h13.52l-6.1,6.1,2.16,2.16,8.26-8.26h8.64c-.54,2.49-3.35,12.17-14.43,12.17Z"/>
        <path class="cls-2" d="M201.53,241.33c-.11,0-.21,0-.32,0-3.72-.07-9.4-1.41-15.41-7.42l2.16-2.16c8.89,8.89,16.59,6.4,18.35,5.65.84-1.63,3.67-8.85-5.74-18.26l2.16-2.16c3.51,3.51,7.7,9.09,7.67,15.7-.02,4.09-1.66,6.64-1.73,6.74l-.21.32-.34.18c-.11.06-2.66,1.41-6.59,1.41Z"/>
        <path class="cls-1" d="M201.21,212.11c-2.98-2.98-7.83-2.98-10.81,0l-3.57,3.57-16.09-16.09-2.16,2.16,16.09,16.09-3.72,3.72c-2.98,2.98-2.98,7.83,0,10.81,1.49,1.49,3.45,2.24,5.41,2.24s3.92-.75,5.41-2.24l9.46-9.46c2.98-2.98,2.98-7.83,0-10.81ZM199.04,220.76l-9.46,9.46c-1.79,1.79-4.7,1.79-6.49,0-1.79-1.79-1.79-4.7,0-6.49l9.46-9.46c.89-.89,2.07-1.34,3.24-1.34s2.35.45,3.24,1.34c1.79,1.79,1.79,4.7,0,6.49Z"/>
        <path class="cls-1" d="M140.41,180.84l18.1-18.1-2.16-2.16-18.35,18.35c-1.54-1.05-3.81-2.36-6.52-3.24-4.79-1.55-11.85-1.98-18.32,4.76-7.43,7.74-9.72,19.99-9.44,26.33.17,3.9,1.21,4.81,1.55,5.11,1.39,1.22,5.66,2.31,10.84,2.31.74,0,1.5-.02,2.26-.07,5.45-.33,13.3-2,19.77-8.05,6.4-5.98,6.66-12.56,5.75-17.03-.94-4.63-3.27-7.91-3.49-8.2ZM136.06,203.84c-5.8,5.43-12.92,6.93-17.86,7.23-5.89.36-10.16-.9-10.88-1.47-.47-.65-1.06-4.57.18-10.72.78-3.84,2.83-11.07,7.87-16.33,4.29-4.47,9.37-5.81,15.08-3.99,2.15.68,3.99,1.7,5.34,2.57l-6.7,6.7h-11.88v3.06h8.82l-10.06,10.06,2.16,2.16,10.38-10.38v9.46h3.06v-12.52l6.64-6.64c1.4,2.14,7.12,12.12-2.15,20.8Z"/>
        <path class="cls-1" d="M184.71,159.27l-18.1-18.1c.22-.3,2.55-3.57,3.49-8.2.91-4.47.64-11.05-5.75-17.03-6.47-6.05-14.32-7.71-19.77-8.05-6.17-.38-11.51.84-13.1,2.24-.34.3-1.39,1.21-1.55,5.11-.28,6.34,2.01,18.59,9.44,26.33,4.18,4.35,8.61,5.71,12.51,5.71,2.14,0,4.11-.41,5.81-.96,2.71-.88,4.98-2.19,6.52-3.24l18.35,18.35,2.16-2.16ZM156.66,143.45c-5.72,1.82-10.79.47-15.08-3.99-5.04-5.25-7.1-12.48-7.87-16.33-1.24-6.14-.65-10.06-.18-10.72.72-.56,4.99-1.82,10.88-1.47,4.95.3,12.06,1.8,17.86,7.23,9.27,8.68,3.56,18.66,2.15,20.8l-6.64-6.64v-12.52h-3.06v9.46l-10.38-10.38-2.16,2.16,10.06,10.06h-8.82v3.06h11.88l6.7,6.7c-1.35.87-3.19,1.89-5.34,2.57Z"/>
        <path class="cls-1" d="M60.87,90.93c-3.42-3.42-7.49-8.84-7.46-15.27.01-3.98,1.62-6.46,1.69-6.57l.21-.32.34-.18c.11-.06,2.73-1.45,6.73-1.37,3.61.07,9.15,1.37,14.99,7.22l-2.16,2.16c-8.59-8.59-16.02-6.21-17.75-5.48-.82,1.6-3.51,8.57,5.57,17.66l-2.16,2.16Z"/>
        <path class="cls-2" d="M422.53,56.63c1.17.77,4.25,2.58,8.3,3.41,1.21.24,2.56.41,4,.41,4.29,0,9.43-1.45,14.22-6.57,6.49-6.94,8.27-15.36,8.63-21.2.4-6.61-.89-12.32-2.38-14.02-.31-.36-1.27-1.45-5.42-1.63-6.82-.3-19.95,2.16-28.26,10.13-7.21,6.92-6.75,14.48-5.09,19.6,1.07,3.31,2.75,6,3.92,7.63l-16.89,16.89v43.24c-1.73,1.14-2.87,3.09-2.87,5.31,0,1.41.47,2.71,1.24,3.76l-36.33,36.33h-217.92l-36.33-36.33c.78-1.05,1.24-2.35,1.24-3.76,0-2.22-1.14-4.17-2.87-5.31v-43.24l-16.89-16.89c1.17-1.63,2.85-4.32,3.92-7.63,1.66-5.12,2.12-12.68-5.09-19.6-8.3-7.97-21.45-10.43-28.25-10.13-4.15.18-5.11,1.27-5.42,1.63-1.49,1.7-2.78,7.41-2.38,14.02.36,5.85,2.14,14.27,8.63,21.2,4.79,5.12,9.93,6.57,14.22,6.57,1.45,0,2.8-.17,4-.41,4.05-.82,7.13-2.64,8.3-3.41l15.9,15.9v40.95c-.14,0-.28-.02-.43-.02-1.24,0-2.39.36-3.37.97l-24.38-24.38,3.58-3.58c2.91-2.91,2.91-7.65,0-10.56-2.91-2.91-7.65-2.91-10.56,0l-9.18,9.18c-2.91,2.91-2.91,7.65,0,10.56,1.46,1.46,3.37,2.18,5.28,2.18s3.82-.73,5.28-2.18l3.43-3.43,24.41,24.41c-.55.94-.86,2.02-.86,3.18,0,3.5,2.85,6.36,6.36,6.36.99,0,1.92-.23,2.75-.63l34.37,34.37h-38.24c-.69-2.77-3.19-4.83-6.16-4.83-3.5,0-6.36,2.85-6.36,6.36,0,1.8.76,3.42,1.96,4.58l-8.2,8.2c-1.1-.72-2.62-1.56-4.41-2.14-3.5-1.13-8.67-1.45-13.4,3.48-5.35,5.57-7,14.37-6.8,18.93.09,1.98.5,3.27,1.25,3.93,1.2,1.05,4.47,1.74,7.98,1.74.53,0,1.07-.02,1.6-.05,3.92-.24,9.58-1.44,14.25-5.81,4.67-4.37,4.86-9.18,4.2-12.45-.56-2.78-1.82-4.88-2.33-5.65l8.63-8.63c.52.14,1.06.22,1.62.22,2.98,0,5.47-2.06,6.16-4.83h89.99l-8.8,8.8c-1.32-.88-3.2-1.95-5.44-2.68-4.13-1.34-10.23-1.71-15.81,4.1-6.37,6.63-8.33,17.12-8.09,22.55.15,3.41,1.09,4.24,1.4,4.51,1.38,1.21,5.31,2.01,9.44,2.01.62,0,1.24-.02,1.86-.06,4.67-.28,11.4-1.71,16.95-6.9,5.52-5.16,5.74-10.84,4.96-14.69-.72-3.56-2.41-6.2-2.89-6.9l10.75-10.75h114.43l10.75,10.75c-.48.7-2.17,3.34-2.89,6.9-.78,3.85-.56,9.53,4.96,14.69,5.55,5.19,12.28,6.62,16.95,6.9.62.04,1.24.06,1.86.06,4.13,0,8.07-.81,9.44-2.01.31-.27,1.25-1.1,1.4-4.51.24-5.43-1.72-15.92-8.09-22.55-5.58-5.81-11.68-5.44-15.81-4.1-2.24.72-4.12,1.8-5.44,2.68l-8.8-8.8h89.99c.69,2.77,3.19,4.83,6.16,4.83.56,0,1.1-.08,1.62-.22l8.63,8.63c-.51.77-1.76,2.87-2.33,5.65-.66,3.27-.47,8.08,4.2,12.45,4.67,4.37,10.32,5.57,14.25,5.81.54.03,1.07.05,1.6.05,3.51,0,6.77-.69,7.98-1.74.76-.66,1.17-1.95,1.25-3.93.2-4.56-1.45-13.36-6.8-18.93-4.73-4.93-9.9-4.61-13.4-3.48-1.79.58-3.31,1.42-4.41,2.14l-8.2-8.2c1.21-1.16,1.96-2.78,1.96-4.58,0-3.5-2.85-6.36-6.36-6.36-2.98,0-5.47,2.06-6.16,4.83h-38.24l34.37-34.37c.83.4,1.76.63,2.75.63,3.5,0,6.36-2.85,6.36-6.36,0-1.16-.32-2.25-.86-3.18l24.41-24.41,3.43,3.43c1.41,1.41,3.28,2.18,5.28,2.18s3.87-.77,5.28-2.18c2.91-2.91,2.91-7.65,0-10.56l-9.18-9.18c-1.41-1.41-3.28-2.18-5.28-2.18s-3.87.77-5.28,2.18c-1.41,1.41-2.18,3.28-2.18,5.28s.77,3.87,2.18,5.28l3.58,3.58-24.38,24.38c-.98-.61-2.13-.97-3.37-.97-.14,0-.29.01-.43.02v-40.95s15.9-15.9,15.9-15.9ZM419.41,45.72c-1.98-6.2-.52-11.71,4.33-16.36,5.7-5.47,13.54-7.69,17.71-8.52,6.7-1.34,10.9-.67,11.56-.15.63.77,2.01,5.31,1.61,11.8-.32,5.34-1.94,13.03-7.81,19.3-4.34,4.64-9.48,6.41-15.28,5.27-3.07-.6-5.53-1.89-6.79-2.65l7.25-7.25h13.32v-3.06h-10.26l10.06-10.06-2.16-2.16-9.92,9.92v-9.98s-3.06,0-3.06,0v13.04s-7.33,7.33-7.33,7.33c-1.02-1.48-2.38-3.76-3.24-6.46ZM90.65,52.18l-7.33-7.33v-13.04h-3.06v9.98l-9.92-9.92-2.16,2.16,10.06,10.06h-10.26v3.06h13.32l7.25,7.25c-1.26.76-3.72,2.05-6.79,2.65-5.8,1.14-10.94-.63-15.28-5.27-5.87-6.27-7.49-13.96-7.81-19.3-.39-6.49.98-11.03,1.61-11.8.66-.51,4.86-1.19,11.56.15,4.17.83,12.01,3.05,17.71,8.52,4.85,4.65,6.3,10.16,4.33,16.36-.86,2.7-2.21,4.98-3.24,6.46ZM70.75,93.49c-1.72,1.72-4.52,1.72-6.24,0-1.72-1.72-1.72-4.52,0-6.24l9.18-9.18c.86-.86,1.99-1.29,3.12-1.29s2.26.43,3.12,1.29c1.72,1.72,1.72,4.52,0,6.24l-9.18,9.18ZM106.25,123.11c-1.82,0-3.3-1.48-3.3-3.3s1.48-3.3,3.3-3.3,3.3,1.48,3.3,3.3-1.48,3.3-3.3,3.3ZM84.75,192.07c-7.15,6.69-18.01,5.12-19.66,4.09-.32-.69-.56-3.48.27-7.41.55-2.61,1.98-7.52,5.4-11.08,4.93-5.14,10.48-3.02,13.4-1.25l-4.22,4.22h-8.21v3.06h5.15l-6.34,6.34,2.16,2.16,6.57-6.57v5.6h3.06v-8.66l4.16-4.16c1.23,2.1,4.02,8.26-1.74,13.65ZM98.96,164.73c-1.82,0-3.3-1.48-3.3-3.3s1.48-3.3,3.3-3.3,3.3,1.48,3.3,3.3-1.48,3.3-3.3,3.3ZM184.53,193.07c-4.85,4.54-10.81,5.81-14.95,6.08-4.91.31-8.47-.68-9.16-1.17-.37-.65-.8-4,.23-9.04.66-3.21,2.4-9.25,6.61-13.64,6.29-6.55,13.36-3.56,16.85-1.34l-5.45,5.45h-10.01v3.06h6.95l-8.16,8.16,2.16,2.16,8.43-8.43v7.49h3.06v-10.55l5.38-5.38c1.37,2.19,5.5,10.18-1.95,17.15ZM332.2,181.29v10.55h3.06v-7.49l8.44,8.44,2.16-2.16-8.16-8.16h6.95v-3.06h-10.01l-5.44-5.44c1.09-.68,2.52-1.44,4.18-1.98,4.8-1.55,9.06-.44,12.66,3.31,4.21,4.39,5.95,10.43,6.61,13.64,1.04,5.04.61,8.39.23,9.04-.71.49-4.26,1.48-9.16,1.17-4.14-.27-10.09-1.54-14.95-6.08-7.45-6.97-3.32-14.96-1.95-17.15l5.38,5.38ZM426.81,178.42l4.16,4.16v8.66h3.06v-5.6l6.57,6.57,2.16-2.16-6.34-6.34h5.15v-3.06h-8.21l-4.22-4.22c2.93-1.77,8.47-3.89,13.4,1.25,3.42,3.56,4.85,8.47,5.4,11.08.83,3.92.59,6.71.27,7.41-1.7,1.04-12.53,2.58-19.66-4.09-5.76-5.39-2.98-11.55-1.74-13.65ZM414.34,158.13c1.82,0,3.3,1.48,3.3,3.3s-1.48,3.3-3.3,3.3-3.3-1.48-3.3-3.3,1.48-3.3,3.3-3.3ZM433.37,84.31c-.83-.83-1.28-1.94-1.28-3.12s.46-2.29,1.28-3.12c.83-.83,1.94-1.28,3.12-1.28s2.29.46,3.12,1.28l9.18,9.18c1.72,1.72,1.72,4.52,0,6.24-.83.83-1.94,1.28-3.12,1.28s-2.29-.46-3.12-1.28l-9.18-9.18ZM407.05,116.51c1.82,0,3.3,1.48,3.3,3.3s-1.48,3.3-3.3,3.3-3.3-1.48-3.3-3.3,1.48-3.3,3.3-3.3Z"/>
        <path class="cls-2" d="M267.54,241.25c-2.89-1.48-5.78-2.23-7.83-2.61v-11.71h-3.06v11.33l-.12.02c-.19.03-4.72.73-9.22,3.71-4.21,2.79-9.17,8.16-8.85,17.88.33,9.85,5.2,17.35,9.23,21.9,4.56,5.15,9.69,8.39,12.02,8.54.06,0,.14,0,.24,0,.66,0,2.14-.25,4.91-2.78,5.22-4.78,13.07-16.24,13.31-28.19.21-10.36-5.67-15.56-10.64-18.1ZM259.91,287.26c-1.03-.09-5.41-2.43-9.92-7.52-3.7-4.18-8.17-11.03-8.47-19.98-.22-6.63,2.27-11.73,7.39-15.17,3.28-2.2,6.68-3.02,7.74-3.23v10.81l-9.96,9.96,2.16,2.16,7.8-7.8v16.88h3.06v-16.37l7.3,7.3,2.16-2.16-9.46-9.46v-10.92c1.77.37,4.11,1.03,6.43,2.21,6.09,3.12,9.11,8.27,8.97,15.32-.17,8.25-4.33,15.67-6.79,19.36-3.98,5.95-7.57,8.52-8.42,8.61Z"/>
      </g>
      <g>
        <path class="cls-4" d="M220.9,176.23c1.12,0,2.76.96,4.92,2.88,2.16,1.92,3.65,3.53,4.46,4.82.37.61.56,2,.56,4.16s-.22,3.59-.66,4.28c-.44.7-2.31,2.08-5.61,4.13-3.3,2.06-5.35,3.61-6.17,4.67-.27.38-.41,1.07-.41,2.09v1.84h12.65v5.61h-19.69v-6.94c0-2.01.24-3.49.71-4.44.48-.95,1.51-2.08,3.11-3.39,1.6-1.31,3.35-2.58,5.25-3.83,1.9-1.24,3.04-2.01,3.42-2.32.37-.31.56-.87.56-1.68s-.11-1.57-.33-2.27c-.22-.7-.64-1.38-1.25-2.04-.61-.66-1.17-1-1.66-1s-1.28.64-2.37,1.91c-1.09,1.27-1.8,2.7-2.14,4.26l-5.51-3.26c.48-2.17,1.83-4.3,4.05-6.38,2.23-2.07,4.26-3.11,6.09-3.11Z"/>
        <path class="cls-4" d="M249.71,208.36c-2.28,1.97-4,2.96-5.15,2.96s-2.87-.99-5.15-2.96c-2.28-1.97-3.69-3.57-4.23-4.79-.38-.71-.56-2.94-.56-6.68v-6.22c0-3.57.23-5.88.69-6.94s1.83-2.57,4.11-4.54c2.28-1.97,4-2.96,5.15-2.96s2.86.99,5.1,2.96c2.24,1.97,3.67,3.57,4.28,4.79.37.78.56,3.01.56,6.68v6.22c0,3.57-.23,5.88-.69,6.94s-1.83,2.57-4.11,4.54ZM243.06,203.92c.59.51,1.1.77,1.5.77s.91-.26,1.5-.77c.59-.51,1.01-.98,1.25-1.4.24-.42.36-2.3.36-5.64v-6.22c0-2.82-.09-4.57-.28-5.25-.19-.68-.59-1.28-1.22-1.79-.63-.51-1.16-.76-1.58-.76s-.95.25-1.58.76c-.63.51-1.04,1.03-1.25,1.56-.2.53-.31,2.35-.31,5.48v6.22c0,3.3.12,5.17.36,5.61.24.44.65.92,1.25,1.43Z"/>
        <path class="cls-4" d="M268.23,176.23c1.12,0,2.76.96,4.92,2.88,2.16,1.92,3.65,3.53,4.46,4.82.37.61.56,2,.56,4.16s-.22,3.59-.66,4.28c-.44.7-2.31,2.08-5.61,4.13-3.3,2.06-5.35,3.61-6.17,4.67-.27.38-.41,1.07-.41,2.09v1.84h12.65v5.61h-19.69v-6.94c0-2.01.24-3.49.71-4.44.48-.95,1.51-2.08,3.11-3.39,1.6-1.31,3.35-2.58,5.25-3.83,1.9-1.24,3.04-2.01,3.42-2.32.37-.31.56-.87.56-1.68s-.11-1.57-.33-2.27c-.22-.7-.64-1.38-1.25-2.04-.61-.66-1.17-1-1.66-1s-1.28.64-2.37,1.91c-1.09,1.27-1.8,2.7-2.14,4.26l-5.51-3.26c.48-2.17,1.83-4.3,4.05-6.38,2.23-2.07,4.26-3.11,6.09-3.11Z"/>
        <path class="cls-4" d="M300.76,210.71h-6.53v-7.24h-6.48l-5.81-3.37c.71-3.03,1.79-6.47,3.24-10.33,1.44-3.86,2.8-7.08,4.05-9.66s2.07-3.88,2.45-3.88c.54,0,2.12.77,4.74,2.32,2.62,1.55,4.06,2.58,4.33,3.08v16.22h2.04v5.61h-2.04v7.24ZM294.23,197.86v-14.48c-1.6,3.71-3.28,8.53-5.05,14.48h5.05Z"/>
      </g>
      <g>
        <path class="cls-3" d="M141.08,69.82V30.63c0-.87-.17-1.6-.5-2.19-.33-.59-.89-1.27-1.66-2.04s-1.39-1.15-1.85-1.15c-1.03,0-2.39,1.03-4.08,3.08.15,1.28.23,2.64.23,4.08v37.42h-10.63v-32.96c0-4.36-.3-7.42-.89-9.16-.59-1.74-1.84-3.82-3.73-6.24l9.24-6.47c1.64,1.18,2.82,2.59,3.54,4.24,3.7-2.82,6.31-4.24,7.85-4.24s4.44,1.98,8.7,5.93c4.26-3.95,7.26-5.93,9.01-5.93,1.28,0,3.48,1.35,6.58,4.04,3.1,2.7,5.04,4.6,5.81,5.7.77,1.1,1.15,2.55,1.15,4.35v40.73h-10.63V30.63c0-.97-.18-1.73-.54-2.27-.36-.54-.96-1.19-1.81-1.96-.85-.77-1.59-1.15-2.23-1.15s-1.66.85-3.04,2.54c.05.26.08.69.08,1.31v40.73h-10.63Z"/>
        <path class="cls-3" d="M197.41,66.97c-3.16,2.52-5.48,3.77-6.97,3.77s-3.81-1.26-6.97-3.77c-3.16-2.51-5.1-4.39-5.81-5.62-1.08-1.9-1.62-6.01-1.62-12.32s.54-10.4,1.62-12.24c.72-1.23,2.66-3.1,5.81-5.62,3.16-2.51,5.48-3.77,6.97-3.77s3.81,1.26,6.97,3.77c3.16,2.52,5.09,4.39,5.81,5.62,1.08,1.85,1.62,5.93,1.62,12.24s-.54,10.42-1.62,12.32c-.72,1.23-2.66,3.11-5.81,5.62ZM188.55,60.74c.8.77,1.42,1.15,1.89,1.15s1.09-.38,1.89-1.15c.79-.77,1.37-1.46,1.73-2.08.67-1.13,1-4.31,1-9.55s-.33-8.44-1-9.62c-.36-.62-.94-1.31-1.73-2.08-.8-.77-1.42-1.15-1.89-1.15s-1.09.38-1.89,1.15c-.8.77-1.37,1.46-1.73,2.08-.67,1.13-1,4.31-1,9.55s.33,8.44,1,9.62c.36.62.94,1.31,1.73,2.08Z"/>
        <path class="cls-3" d="M215.12,31.51c2.8-2.75,4.86-4.12,6.2-4.12s3.62,1.39,6.85,4.16v-3.77c0-2.62-.31-4.62-.92-6.01-.62-1.39-1.59-2.64-2.93-3.77l8.47-5.93c3.7,2.93,5.54,7.06,5.54,12.4v45.35h-7.85l-.92-4.54c-3.75,3.65-6.55,5.47-8.39,5.47-1.23,0-3.25-1.37-6.04-4.12-2.8-2.75-4.4-4.76-4.81-6.04-.57-1.28-.85-5.12-.85-11.51s.28-10.23.85-11.51c.41-1.28,2.01-3.3,4.81-6.04ZM227.63,40.06c-.36-.64-1.09-1.31-2.19-2-1.1-.69-1.94-1.04-2.5-1.04s-1.17.33-1.81,1c-.64.67-1.12,1.36-1.42,2.08-.31.72-.46,3.71-.46,8.97s.15,8.24.46,8.93c.31.69.78,1.39,1.42,2.08.64.69,1.23,1.04,1.77,1.04s1.36-.35,2.46-1.04c1.1-.69,1.83-1.3,2.19-1.81.31-.72.51-2.8.62-6.24v-2.85c0-5.44-.18-8.48-.54-9.12Z"/>
        <path class="cls-3" d="M255.81,36.4v17.02c0,2.41.82,4.62,2.46,6.62s3.9,3.59,6.78,4.77l-8.47,5.93c-3.08-1.44-5.67-3.43-7.78-5.97-2.11-2.54-3.16-5.22-3.16-8.05v-20.33h-3.85v-5.77l3.85-.92c-.1-2.51-.41-4.5-.92-5.97-.51-1.46-1.49-2.89-2.93-4.27l8.47-5.93c3.7,2.93,5.54,7.08,5.54,12.47v2.31h8.62v8.08h-8.62Z"/>
        <path class="cls-3" d="M290.65,66.97c-3.16,2.52-5.48,3.77-6.97,3.77s-3.81-1.26-6.97-3.77c-3.16-2.51-5.09-4.39-5.81-5.62-1.08-1.9-1.62-6.01-1.62-12.32s.54-10.4,1.62-12.24c.72-1.23,2.66-3.1,5.81-5.62,3.16-2.51,5.48-3.77,6.97-3.77s3.81,1.26,6.97,3.77c3.16,2.52,5.09,4.39,5.81,5.62,1.08,1.85,1.62,5.93,1.62,12.24s-.54,10.42-1.62,12.32c-.72,1.23-2.66,3.11-5.81,5.62ZM281.8,60.74c.8.77,1.42,1.15,1.89,1.15s1.09-.38,1.89-1.15c.79-.77,1.37-1.46,1.73-2.08.67-1.13,1-4.31,1-9.55s-.33-8.44-1-9.62c-.36-.62-.94-1.31-1.73-2.08-.8-.77-1.42-1.15-1.89-1.15s-1.09.38-1.89,1.15-1.37,1.46-1.73,2.08c-.67,1.13-1,4.31-1,9.55s.33,8.44,1,9.62c.36.62.94,1.31,1.73,2.08Z"/>
        <path class="cls-3" d="M305.4,69.82V27.78c0-2.62-.31-4.62-.92-6.01-.62-1.39-1.59-2.64-2.93-3.77l8.47-5.93c3.7,2.93,5.54,7.06,5.54,12.4v7.01c3.08-2.72,5.3-4.08,6.66-4.08s3.44,1.37,6.24,4.12c2.8,2.75,4.4,4.76,4.81,6.04.56,1.28.85,5.12.85,11.51s-.28,10.23-.85,11.51c-.41,1.28-2.02,3.3-4.81,6.04-2.8,2.75-4.81,4.12-6.04,4.12-1.8,0-4.67-1.87-8.62-5.62l-.85,4.7h-7.55ZM315.95,58.08c.36.64,1.09,1.31,2.19,2,1.1.69,1.94,1.04,2.5,1.04s1.17-.33,1.81-1c.64-.67,1.12-1.36,1.42-2.08.31-.72.46-3.71.46-8.97s-.15-8.24-.46-8.93c-.31-.69-.78-1.39-1.42-2.08-.64-.69-1.23-1.04-1.77-1.04s-1.36.35-2.46,1.04c-1.1.69-1.84,1.3-2.19,1.81-.41.87-.62,3.97-.62,9.28s.18,8.29.54,8.93Z"/>
        <path class="cls-3" d="M367.54,48.95v2.77h-18.63c0,3.08.39,5.52,1.16,7.32.26.62.72,1.25,1.39,1.89.67.64,1.36.96,2.08.96s1.62-.62,2.7-1.85c1.08-1.23,1.92-2.72,2.54-4.47l7.93,5.62c-1.39,2.57-3.5,4.8-6.35,6.7-2.85,1.9-5.15,2.85-6.89,2.85s-4.27-1.36-7.58-4.08c-3.31-2.72-5.33-4.84-6.04-6.35-.72-1.51-1.08-5.26-1.08-11.24s.36-9.73,1.08-11.24c.72-1.51,2.73-3.63,6.04-6.35,3.31-2.72,5.74-4.08,7.28-4.08s3.97,1.36,7.28,4.08c3.31,2.72,5.33,4.84,6.04,6.35.72,1.51,1.08,5.22,1.08,11.13ZM356.87,39.29c-.38-.69-.98-1.37-1.77-2.04-.8-.67-1.54-1-2.23-1s-1.48.68-2.35,2.04c-.87,1.36-1.41,3.4-1.62,6.12h8.78c-.15-2.72-.42-4.43-.81-5.12Z"/>
        <path class="cls-3" d="M385.78,69.82h-10.16v-26.56c0-2.62-.32-4.66-.96-6.12-.64-1.46-1.61-2.73-2.89-3.81l8.47-5.93c1.85,1.54,3.26,3.34,4.24,5.39,3.8-3.59,6.47-5.39,8.01-5.39,1.03,0,2.59.95,4.7,2.85,2.1,1.9,3.34,3.98,3.7,6.24l-8.24,5.93c-.05-1.23-.35-2.44-.89-3.62-.54-1.18-1.01-1.77-1.42-1.77-.87,0-2.39,1.08-4.54,3.23v29.57Z"/>
      </g>
      <g>
        <path class="cls-3" d="M198.04,109.91v-5.77l3.85-.92c0-5.75.28-9.27.85-10.55.56-1.28,2.51-3.28,5.85-6.01,3.34-2.72,5.79-4.08,7.35-4.08s3.53.73,5.89,2.19c2.36,1.46,4.13,3.15,5.31,5.04l-7.55,5.08c-1.44-2.31-2.67-3.46-3.7-3.46-.51,0-1.1.33-1.77,1s-1.18,1.36-1.54,2.08c-.36.72-.54,3.16-.54,7.31h10.93v8.08h-10.93v30.42h-10.16v-30.42h-3.85Z"/>
        <path class="cls-3" d="M254.79,119.46v2.77h-18.63c0,3.08.38,5.52,1.15,7.32.26.62.72,1.25,1.39,1.89.67.64,1.36.96,2.08.96s1.62-.62,2.69-1.85c1.08-1.23,1.92-2.72,2.54-4.47l7.93,5.62c-1.39,2.57-3.5,4.8-6.35,6.7-2.85,1.9-5.15,2.85-6.89,2.85s-4.27-1.36-7.58-4.08c-3.31-2.72-5.33-4.84-6.04-6.35-.72-1.51-1.08-5.26-1.08-11.24s.36-9.73,1.08-11.24c.72-1.51,2.73-3.63,6.04-6.35,3.31-2.72,5.74-4.08,7.28-4.08s3.97,1.36,7.28,4.08c3.31,2.72,5.33,4.84,6.04,6.35.72,1.51,1.08,5.22,1.08,11.13ZM244.12,109.8c-.38-.69-.98-1.37-1.77-2.04-.8-.67-1.54-1-2.23-1s-1.48.68-2.35,2.04c-.87,1.36-1.41,3.4-1.62,6.12h8.78c-.15-2.72-.42-4.43-.81-5.12Z"/>
        <path class="cls-3" d="M287.67,127.85c0,1.59-1.98,4.22-5.93,7.89-3.95,3.67-6.89,5.51-8.82,5.51s-4.31-.95-7.16-2.85c-2.85-1.9-4.97-4.13-6.35-6.7l7.93-5.47c2.57,3.59,4.44,5.39,5.62,5.39.87,0,1.95-.44,3.23-1.31,1.28-.87,1.92-1.69,1.92-2.46,0-.2-.62-.65-1.85-1.35-1.23-.69-2.73-1.57-4.5-2.62-1.77-1.05-3.53-2.23-5.27-3.54-1.75-1.31-3.23-2.91-4.47-4.81-1.23-1.9-1.85-3.82-1.85-5.77s1.75-4.41,5.24-7.39c3.49-2.98,6.17-4.47,8.05-4.47s4.23.95,7.08,2.85c2.85,1.9,4.97,4.13,6.35,6.7l-7.93,5.47c-2.57-3.59-4.44-5.39-5.62-5.39-.62,0-1.37.35-2.27,1.04-.9.69-1.35,1.32-1.35,1.89s.94,1.44,2.81,2.62c1.87,1.18,3.93,2.4,6.16,3.66,2.23,1.26,4.29,2.9,6.16,4.93,1.87,2.03,2.81,4.09,2.81,6.2Z"/>
        <path class="cls-3" d="M304.37,106.91v17.02c0,2.41.82,4.62,2.46,6.62,1.64,2,3.9,3.59,6.78,4.77l-8.47,5.93c-3.08-1.44-5.67-3.43-7.78-5.97-2.11-2.54-3.16-5.22-3.16-8.05v-20.33h-3.85v-5.77l3.85-.92c-.1-2.51-.41-4.5-.92-5.97-.51-1.46-1.49-2.89-2.93-4.27l8.47-5.93c3.7,2.93,5.54,7.08,5.54,12.47v2.31h8.62v8.08h-8.62Z"/>
      </g>
    </g>
  </g>
</svg>